HIERARCHY
ROOT Hips
{
	OFFSET 0.000000 0.000000 0.000000
	CHANNELS 6 Xposition Yposition Zposition Zrotation Yrotation Xrotation 
	JOINT LHipJoint
	{
		OFFSET 0.000000 0.000000 0.000000
		CHANNELS 3 Zrotation Yrotation Xrotation
		JOINT LeftUpLeg
		{
			OFFSET 1.363060 -1.794630 0.839290
			CHANNELS 3 Zrotation Yrotation Xrotation
			JOINT LeftLeg
			{
				OFFSET 2.448110 -6.726130 0.000000
				CHANNELS 3 Zrotation Yrotation Xrotation
				JOINT LeftFoot
				{
					OFFSET 2.562200 -7.039590 0.000000
					CHANNELS 3 Zrotation Yrotation Xrotation
					JOINT LeftToeBase
					{
						OFFSET 0.157640 -0.433110 2.322550
						CHANNELS 3 Zrotation Yrotation Xrotation
						End Site
						{
							OFFSET 0.000000 0.000000 0.000000
						}
					}
				}
			}
		}
	}
	JOINT RHipJoint
	{
		OFFSET 0.000000 0.000000 0.000000
		CHANNELS 3 Zrotation Yrotation Xrotation
		JOINT RightUpLeg
		{
			OFFSET -1.305520 -1.794630 0.839290
			CHANNELS 3 Zrotation Yrotation Xrotation
			JOINT RightLeg
			{
				OFFSET -2.542530 -6.985550 0.000000
				CHANNELS 3 Zrotation Yrotation Xrotation
				JOINT RightFoot
				{
					OFFSET -2.568260 -7.056230 0.000000
					CHANNELS 3 Zrotation Yrotation Xrotation
					JOINT RightToeBase
					{
						OFFSET -0.164730 -0.452590 2.363150
						CHANNELS 3 Zrotation Yrotation Xrotation
						End Site
						{
							OFFSET 0.000000 0.000000 0.000000
						}
					}
				}
			}
		}
	}
	JOINT LowerBack
	{
		OFFSET 0.000000 0.000000 0.000000
		CHANNELS 3 Zrotation Yrotation Xrotation
		JOINT Spine
		{
			OFFSET 0.028270 2.035590 -0.193380
			CHANNELS 3 Zrotation Yrotation Xrotation
			JOINT Spine1
			{
				OFFSET 0.056720 2.048850 -0.042750
				CHANNELS 3 Zrotation Yrotation Xrotation
				JOINT Neck
				{
					OFFSET 0.000000 0.000000 0.000000
					CHANNELS 3 Zrotation Yrotation Xrotation
					JOINT Neck1
					{
						OFFSET -0.054170 1.746240 0.172020
						CHANNELS 3 Zrotation Yrotation Xrotation
						JOINT Head
						{
							OFFSET 0.104070 1.761360 -0.123970
							CHANNELS 3 Zrotation Yrotation Xrotation
							End Site
							{
								OFFSET 0.000000 0.000000 0.000000
							}
						}
					}
				}
				JOINT LeftShoulder
				{
					OFFSET 0.000000 0.000000 0.000000
					CHANNELS 3 Zrotation Yrotation Xrotation
					JOINT LeftArm
					{
						OFFSET 3.362410 1.200890 -0.311210
						CHANNELS 3 Zrotation Yrotation Xrotation
						JOINT LeftForeArm
						{
							OFFSET 4.983000 -0.000000 -0.000000
							CHANNELS 3 Zrotation Yrotation Xrotation
							JOINT LeftHand
							{
								OFFSET 3.483560 -0.000000 -0.000000
								CHANNELS 3 Zrotation Yrotation Xrotation
								JOINT LeftFingerBase
								{
									OFFSET 0.000000 0.000000 0.000000
									CHANNELS 3 Zrotation Yrotation Xrotation
									JOINT LeftHandIndex1
									{
										OFFSET 0.715260 -0.000000 -0.000000
										CHANNELS 3 Zrotation Yrotation Xrotation
										End Site
										{
											OFFSET 0.000000 0.000000 0.000000
										}
									}
								}
								JOINT LThumb
								{
									OFFSET 0.000000 0.000000 0.000000
									CHANNELS 3 Zrotation Yrotation Xrotation
									End Site
									{
										OFFSET 0.000000 0.000000 0.000000
									}
								}
							}
						}
					}
				}
				JOINT RightShoulder
				{
					OFFSET 0.000000 0.000000 0.000000
					CHANNELS 3 Zrotation Yrotation Xrotation
					JOINT RightArm
					{
						OFFSET -3.136600 1.374050 -0.404650
						CHANNELS 3 Zrotation Yrotation Xrotation
						JOINT RightForeArm
						{
							OFFSET -5.241900 -0.000000 -0.000000
							CHANNELS 3 Zrotation Yrotation Xrotation
							JOINT RightHand
							{
								OFFSET -3.444170 -0.000000 -0.000000
								CHANNELS 3 Zrotation Yrotation Xrotation
								JOINT RightFingerBase
								{
									OFFSET 0.000000 0.000000 0.000000
									CHANNELS 3 Zrotation Yrotation Xrotation
									JOINT RightHandIndex1
									{
										OFFSET -0.622530 -0.000000 -0.000000
										CHANNELS 3 Zrotation Yrotation Xrotation
										End Site
										{
											OFFSET 0.000000 0.000000 0.000000
										}
									}
								}
								JOINT RThumb
								{
									OFFSET 0.000000 0.000000 0.000000
									CHANNELS 3 Zrotation Yrotation Xrotation
									End Site
									{
										OFFSET 0.000000 0.000000 0.000000
									}
								}
							}
						}
					}
				}
			}
		}
	}
}
MOTION
Frames: 13
Frame Time: 0.041667
12.075397 18.700303 2.003880 14.941197 -366.886164 -108.972349 0.000000 0.000000 0.000000 0.000000 -4.774905 -10.403811 0.000000 0.000000 65.860306 0.000000 0.000000 0.000000 0.000000 0.000000 0.000000 0.000000 0.000000 0.000000 0.000000 0.000000 -1.565925 0.000000 0.000000 55.735528 0.000000 0.000000 0.000000 0.000000 0.000000 0.000000 -69.865688 -8.897921 -73.331439 -1.958254 -33.636406 -1.103924 -38.772949 -30.138183 -68.163343 0.000000 0.000000 0.000000 0.000000 0.000000 0.000000 0.000000 0.000000 0.000000 25.696689 -127.175745 -82.071464 14.459954 1.357915 11.971918 -0.263525 0.003674 1.245541 -0.019814 0.084392 -0.214056 0.047893 -0.035758 -0.285476 -0.198633 -0.198633 -0.198633 0.000000 0.000000 0.000000 0.000000 0.000000 0.000000 0.000000 -42.824659 0.000000 0.000000 -15.675177 0.000000 0.000000 0.000000 0.000000 0.000000 0.000000 0.000000 0.000000 0.000000 0.000000 0.000000 0.000000 0.000000 
12.880423 19.946989 2.137472 16.393041 -367.020985 -99.418620 0.000000 0.000000 0.000000 0.000000 -4.456578 -7.234641 0.000000 0.000000 68.748408 0.000000 0.000000 0.000000 0.000000 0.000000 0.000000 0.000000 0.000000 0.000000 0.000000 0.000000 1.411664 0.000000 0.000000 57.263724 0.000000 0.000000 0.000000 0.000000 0.000000 0.000000 -68.393259 -8.647662 -72.614709 -1.869077 -33.713942 -1.100527 -40.673260 -29.795129 -67.588278 0.000000 0.000000 0.000000 0.000000 0.000000 0.000000 0.000000 0.000000 0.000000 24.578318 -128.669249 -83.229569 14.222091 1.370271 12.007528 -0.264880 0.033290 1.245458 -0.017203 0.087244 -0.213204 0.050606 -0.033004 -0.284559 -0.197724 -0.197724 -0.197724 0.000000 0.000000 0.000000 0.000000 0.000000 0.000000 0.000000 -39.969681 0.000000 0.000000 -14.630165 0.000000 0.000000 0.000000 0.000000 0.000000 0.000000 0.000000 0.000000 0.000000 0.000000 0.000000 0.000000 0.000000 
13.685450 21.193676 2.271064 17.844886 -367.155805 -89.864890 0.000000 0.000000 0.000000 0.000000 -4.138251 -4.065471 0.000000 0.000000 71.636510 0.000000 0.000000 0.000000 0.000000 0.000000 0.000000 0.000000 0.000000 0.000000 0.000000 0.000000 4.389252 0.000000 0.000000 58.791920 0.000000 0.000000 0.000000 0.000000 0.000000 0.000000 -66.920830 -8.397402 -71.897979 -1.779899 -33.791478 -1.097130 -42.573572 -29.452075 -67.013214 0.000000 0.000000 0.000000 0.000000 0.000000 0.000000 0.000000 0.000000 0.000000 23.459946 -130.162754 -84.387674 13.984228 1.382628 12.043137 -0.266234 0.062905 1.245375 -0.014592 0.090096 -0.212352 0.053318 -0.030250 -0.283642 -0.196816 -0.196816 -0.196816 0.000000 0.000000 0.000000 0.000000 0.000000 0.000000 0.000000 -37.114704 0.000000 0.000000 -13.585153 0.000000 0.000000 0.000000 0.000000 0.000000 0.000000 0.000000 0.000000 0.000000 0.000000 0.000000 0.000000 0.000000 
14.490476 22.440363 2.404656 19.296730 -367.290625 -80.311161 0.000000 0.000000 0.000000 0.000000 -3.819924 -0.896301 0.000000 0.000000 74.524613 0.000000 0.000000 0.000000 0.000000 0.000000 0.000000 0.000000 0.000000 0.000000 0.000000 0.000000 7.366841 0.000000 0.000000 60.320115 0.000000 0.000000 0.000000 0.000000 0.000000 0.000000 -65.448401 -8.147143 -71.181249 -1.690722 -33.869014 -1.093733 -44.473883 -29.109022 -66.438149 0.000000 0.000000 0.000000 0.000000 0.000000 0.000000 0.000000 0.000000 0.000000 22.341575 -131.656258 -85.545779 13.746365 1.394984 12.078747 -0.267588 0.092521 1.245292 -0.011981 0.092948 -0.211500 0.056031 -0.027496 -0.282725 -0.195907 -0.195907 -0.195907 0.000000 0.000000 0.000000 0.000000 0.000000 0.000000 0.000000 -34.259727 0.000000 0.000000 -12.540141 0.000000 0.000000 0.000000 0.000000 0.000000 0.000000 0.000000 0.000000 0.000000 0.000000 0.000000 0.000000 0.000000 
15.295503 23.687050 2.538248 20.748574 -367.425445 -70.757431 0.000000 0.000000 0.000000 0.000000 -3.501597 2.272869 0.000000 0.000000 77.412715 0.000000 0.000000 0.000000 0.000000 0.000000 0.000000 0.000000 0.000000 0.000000 0.000000 0.000000 10.344430 0.000000 0.000000 61.848311 0.000000 0.000000 0.000000 0.000000 0.000000 0.000000 -63.975973 -7.896883 -70.464519 -1.601545 -33.946550 -1.090336 -46.374194 -28.765968 -65.863085 0.000000 0.000000 0.000000 0.000000 0.000000 0.000000 0.000000 0.000000 0.000000 21.223204 -133.149763 -86.703884 13.508502 1.407341 12.114357 -0.268942 0.122137 1.245210 -0.009370 0.095800 -0.210648 0.058743 -0.024742 -0.281809 -0.194998 -0.194998 -0.194998 0.000000 0.000000 0.000000 0.000000 0.000000 0.000000 0.000000 -31.404750 0.000000 0.000000 -11.495129 0.000000 0.000000 0.000000 0.000000 0.000000 0.000000 0.000000 0.000000 0.000000 0.000000 0.000000 0.000000 0.000000 
16.100529 24.933737 2.671840 22.200419 -367.560266 -61.203702 0.000000 0.000000 0.000000 0.000000 -3.183270 5.442039 0.000000 0.000000 80.300818 0.000000 0.000000 0.000000 0.000000 0.000000 0.000000 0.000000 0.000000 0.000000 0.000000 0.000000 13.322018 0.000000 0.000000 63.376507 0.000000 0.000000 0.000000 0.000000 0.000000 0.000000 -62.503544 -7.646624 -69.747789 -1.512368 -34.024086 -1.086939 -48.274506 -28.422914 -65.288020 0.000000 0.000000 0.000000 0.000000 0.000000 0.000000 0.000000 0.000000 0.000000 20.104833 -134.643268 -87.861989 13.270640 1.419697 12.149966 -0.270297 0.151752 1.245127 -0.006759 0.098652 -0.209796 0.061456 -0.021988 -0.280892 -0.194090 -0.194090 -0.194090 0.000000 0.000000 0.000000 0.000000 0.000000 0.000000 0.000000 -28.549772 0.000000 0.000000 -10.450118 0.000000 0.000000 0.000000 0.000000 0.000000 0.000000 0.000000 0.000000 0.000000 0.000000 0.000000 0.000000 0.000000 
16.905556 26.180424 2.805432 23.652263 -367.695086 -51.649972 0.000000 0.000000 0.000000 0.000000 -2.864943 8.611209 0.000000 0.000000 83.188920 0.000000 0.000000 0.000000 0.000000 0.000000 0.000000 0.000000 0.000000 0.000000 0.000000 0.000000 16.299607 0.000000 0.000000 64.904703 0.000000 0.000000 0.000000 0.000000 0.000000 0.000000 -61.031115 -7.396364 -69.031059 -1.423190 -34.101622 -1.083542 -50.174817 -28.079860 -64.712956 0.000000 0.000000 0.000000 0.000000 0.000000 0.000000 0.000000 0.000000 0.000000 18.986462 -136.136772 -89.020094 13.032777 1.432054 12.185576 -0.271651 0.181368 1.245044 -0.004148 0.101504 -0.208944 0.064169 -0.019234 -0.279975 -0.193181 -0.193181 -0.193181 0.000000 0.000000 0.000000 0.000000 0.000000 0.000000 0.000000 -25.694795 0.000000 0.000000 -9.405106 0.000000 0.000000 0.000000 0.000000 0.000000 0.000000 0.000000 0.000000 0.000000 0.000000 0.000000 0.000000 0.000000 
17.710582 27.427110 2.939024 25.104107 -367.829906 -42.096243 0.000000 0.000000 0.000000 0.000000 -2.546616 11.780379 0.000000 0.000000 86.077023 0.000000 0.000000 0.000000 0.000000 0.000000 0.000000 0.000000 0.000000 0.000000 0.000000 0.000000 19.277196 0.000000 0.000000 66.432898 0.000000 0.000000 0.000000 0.000000 0.000000 0.000000 -59.558686 -7.146105 -68.314329 -1.334013 -34.179158 -1.080145 -52.075128 -27.736806 -64.137892 0.000000 0.000000 0.000000 0.000000 0.000000 0.000000 0.000000 0.000000 0.000000 17.868090 -137.630277 -90.178199 12.794914 1.444410 12.221185 -0.273005 0.210984 1.244961 -0.001537 0.104357 -0.208092 0.066881 -0.016481 -0.279058 -0.192273 -0.192273 -0.192273 0.000000 0.000000 0.000000 0.000000 0.000000 0.000000 0.000000 -22.839818 0.000000 0.000000 -8.360094 0.000000 0.000000 0.000000 0.000000 0.000000 0.000000 0.000000 0.000000 0.000000 0.000000 0.000000 0.000000 0.000000 
18.515609 28.673797 3.072616 26.555951 -367.964726 -32.542513 0.000000 0.000000 0.000000 0.000000 -2.228289 14.949549 0.000000 0.000000 88.965125 0.000000 0.000000 0.000000 0.000000 0.000000 0.000000 0.000000 0.000000 0.000000 0.000000 0.000000 22.254784 0.000000 0.000000 67.961094 0.000000 0.000000 0.000000 0.000000 0.000000 0.000000 -58.086257 -6.895845 -67.597599 -1.244836 -34.256694 -1.076748 -53.975440 -27.393752 -63.562827 0.000000 0.000000 0.000000 0.000000 0.000000 0.000000 0.000000 0.000000 0.000000 16.749719 -139.123781 -91.336304 12.557051 1.456767 12.256795 -0.274359 0.240599 1.244878 0.001074 0.107209 -0.207240 0.069594 -0.013727 -0.278141 -0.191364 -0.191364 -0.191364 0.000000 0.000000 0.000000 0.000000 0.000000 0.000000 0.000000 -19.984841 0.000000 0.000000 -7.315082 0.000000 0.000000 0.000000 0.000000 0.000000 0.000000 0.000000 0.000000 0.000000 0.000000 0.000000 0.000000 0.000000 
19.320635 29.920484 3.206208 28.007796 -368.099547 -22.988784 0.000000 0.000000 0.000000 0.000000 -1.909962 18.118719 0.000000 0.000000 91.853228 0.000000 0.000000 0.000000 0.000000 0.000000 0.000000 0.000000 0.000000 0.000000 0.000000 0.000000 25.232373 0.000000 0.000000 69.489290 0.000000 0.000000 0.000000 0.000000 0.000000 0.000000 -56.613828 -6.645586 -66.880869 -1.155659 -34.334230 -1.073351 -55.875751 -27.050699 -62.987763 0.000000 0.000000 0.000000 0.000000 0.000000 0.000000 0.000000 0.000000 0.000000 15.631348 -140.617286 -92.494409 12.319188 1.469123 12.292404 -0.275714 0.270215 1.244795 0.003685 0.110061 -0.206388 0.072306 -0.010973 -0.277224 -0.190456 -0.190456 -0.190456 0.000000 0.000000 0.000000 0.000000 0.000000 0.000000 0.000000 -17.129863 0.000000 0.000000 -6.270071 0.000000 0.000000 0.000000 0.000000 0.000000 0.000000 0.000000 0.000000 0.000000 0.000000 0.000000 0.000000 0.000000 
20.125662 31.167171 3.339800 29.459640 -368.234367 -13.435055 0.000000 0.000000 0.000000 0.000000 -1.591635 21.287889 0.000000 0.000000 94.741330 0.000000 0.000000 0.000000 0.000000 0.000000 0.000000 0.000000 0.000000 0.000000 0.000000 0.000000 28.209962 0.000000 0.000000 71.017486 0.000000 0.000000 0.000000 0.000000 0.000000 0.000000 -55.141399 -6.395326 -66.164139 -1.066482 -34.411766 -1.069954 -57.776062 -26.707645 -62.412698 0.000000 0.000000 0.000000 0.000000 0.000000 0.000000 0.000000 0.000000 0.000000 14.512977 -142.110790 -93.652514 12.081325 1.481480 12.328014 -0.277068 0.299831 1.244712 0.006296 0.112913 -0.205536 0.075019 -0.008219 -0.276307 -0.189547 -0.189547 -0.189547 0.000000 0.000000 0.000000 0.000000 0.000000 0.000000 0.000000 -14.274886 0.000000 0.000000 -5.225059 0.000000 0.000000 0.000000 0.000000 0.000000 0.000000 0.000000 0.000000 0.000000 0.000000 0.000000 0.000000 0.000000 
20.930688 32.413858 3.473392 30.911484 -368.369187 -3.881325 0.000000 0.000000 0.000000 0.000000 -1.273308 24.457059 0.000000 0.000000 97.629432 0.000000 0.000000 0.000000 0.000000 0.000000 0.000000 0.000000 0.000000 0.000000 0.000000 0.000000 31.187550 0.000000 0.000000 72.545681 0.000000 0.000000 0.000000 0.000000 0.000000 0.000000 -53.668970 -6.145067 -65.447409 -0.977304 -34.489302 -1.066556 -59.676373 -26.364591 -61.837634 0.000000 0.000000 0.000000 0.000000 0.000000 0.000000 0.000000 0.000000 0.000000 13.394606 -143.604295 -94.810619 11.843462 1.493836 12.363624 -0.278422 0.329446 1.244629 0.008907 0.115765 -0.204684 0.077731 -0.005465 -0.275390 -0.188638 -0.188638 -0.188638 0.000000 0.000000 0.000000 0.000000 0.000000 0.000000 0.000000 -11.419909 0.000000 0.000000 -4.180047 0.000000 0.000000 0.000000 0.000000 0.000000 0.000000 0.000000 0.000000 0.000000 0.000000 0.000000 0.000000 0.000000 
21.735715 33.660545 3.606984 32.363328 -368.504008 5.672404 0.000000 0.000000 0.000000 0.000000 -0.954981 27.626230 0.000000 0.000000 100.517535 0.000000 0.000000 0.000000 0.000000 0.000000 0.000000 0.000000 0.000000 0.000000 0.000000 0.000000 34.165139 0.000000 0.000000 74.073877 0.000000 0.000000 0.000000 0.000000 0.000000 0.000000 -52.196541 -5.894807 -64.730680 -0.888127 -34.566838 -1.063159 -61.576685 -26.021537 -61.262569 0.000000 0.000000 0.000000 0.000000 0.000000 0.000000 0.000000 0.000000 0.000000 12.276234 -145.097799 -95.968724 11.605599 1.506193 12.399233 -0.279776 0.359062 1.244546 0.011518 0.118617 -0.203832 0.080444 -0.002711 -0.274473 -0.187730 -0.187730 -0.187730 0.000000 0.000000 0.000000 0.000000 0.000000 0.000000 0.000000 -8.564932 0.000000 0.000000 -3.135035 0.000000 0.000000 0.000000 0.000000 0.000000 0.000000 0.000000 0.000000 0.000000 0.000000 0.000000 0.000000 0.000000 
